<svg width="20" height="20" viewBox="0 0 20 20" fill="none" xmlns="http://www.w3.org/2000/svg">
<path d="M19.0966 7.41964C19.039 7.24983 18.9329 7.10061 18.7914 6.99043C18.6499 6.88024 18.4792 6.81389 18.3005 6.79959L13.0713 6.38408L10.8085 1.37506C10.7364 1.21373 10.6192 1.07671 10.471 0.980522C10.3228 0.884337 10.1499 0.833105 9.9732 0.833008C9.79651 0.832911 9.62356 0.883954 9.47523 0.979976C9.32691 1.076 9.20954 1.2129 9.1373 1.37415L6.87449 6.38408L1.64533 6.79959C1.46964 6.8135 1.30168 6.87774 1.16154 6.98462C1.02141 7.0915 0.915026 7.23648 0.85513 7.40224C0.795235 7.56799 0.784361 7.74749 0.823808 7.91926C0.863256 8.09103 0.951355 8.2478 1.07757 8.37081L4.94187 12.1379L3.57519 18.0559C3.5337 18.235 3.547 18.4225 3.61337 18.594C3.67974 18.7655 3.79612 18.913 3.94741 19.0175C4.0987 19.1221 4.2779 19.1787 4.46178 19.1801C4.64565 19.1815 4.8257 19.1276 4.97856 19.0254L9.9729 15.6958L14.9672 19.0254C15.1235 19.1291 15.3077 19.1825 15.4952 19.1784C15.6827 19.1743 15.8645 19.1129 16.016 19.0024C16.1675 18.8919 16.2816 18.7377 16.3429 18.5604C16.4041 18.3832 16.4097 18.1914 16.3587 18.0109L14.6811 12.1406L18.8416 8.39649C19.1141 8.15067 19.214 7.76727 19.0966 7.41964Z" fill="#F3CD03"/>
</svg>
