<svg width="20" height="20" viewBox="0 0 20 20" fill="none" xmlns="http://www.w3.org/2000/svg">
<path d="M4.99748 12.1374L3.6308 18.0554C3.58848 18.2346 3.60118 18.4224 3.66725 18.5943C3.73332 18.7662 3.84969 18.9141 4.00115 19.0188C4.15261 19.1235 4.33213 19.1801 4.51625 19.1812C4.70038 19.1823 4.88056 19.1278 5.03325 19.0249L10.0276 15.6954L15.0219 19.0249C15.1782 19.1287 15.3624 19.1821 15.5499 19.178C15.7374 19.1739 15.9191 19.1124 16.0707 19.0019C16.2222 18.8915 16.3363 18.7372 16.3976 18.56C16.4588 18.3827 16.4643 18.191 16.4134 18.0105L14.7358 12.1402L18.8963 8.39603C19.0296 8.27605 19.1247 8.11963 19.17 7.94614C19.2153 7.77264 19.2088 7.58967 19.1512 7.41986C19.0936 7.25004 18.9875 7.10083 18.8461 6.99067C18.7046 6.88051 18.5339 6.81423 18.3552 6.80004L13.126 6.38362L10.8632 1.3746C10.791 1.21331 10.6737 1.07635 10.5255 0.980249C10.3772 0.884145 10.2043 0.833008 10.0276 0.833008C9.8509 0.833008 9.67798 0.884145 9.52971 0.980249C9.38143 1.07635 9.26414 1.21331 9.19199 1.3746L6.92917 6.38362L1.70002 6.79913C1.52433 6.81305 1.35637 6.87729 1.21623 6.98416C1.07609 7.09104 0.969713 7.23602 0.909818 7.40178C0.849923 7.56753 0.839048 7.74703 0.878496 7.9188C0.917944 8.09057 1.00604 8.24734 1.13225 8.37035L4.99748 12.1374ZM7.61435 8.16947C7.77807 8.15658 7.9353 8.09987 8.06957 8.0053C8.20384 7.91073 8.31019 7.78179 8.37749 7.63198L10.0276 3.98047L11.6777 7.63198C11.745 7.78179 11.8513 7.91073 11.9856 8.0053C12.1199 8.09987 12.2771 8.15658 12.4408 8.16947L16.0841 8.4584L13.0838 11.1587C12.8233 11.3936 12.7197 11.7549 12.8151 12.0925L13.9644 16.1146L10.5376 13.8297C10.3872 13.7288 10.2101 13.6749 10.029 13.6749C9.84782 13.6749 9.67077 13.7288 9.52036 13.8297L5.93948 16.2173L6.90257 12.0475C6.93789 11.8942 6.93315 11.7343 6.88881 11.5833C6.84448 11.4323 6.76203 11.2953 6.64942 11.1853L3.86286 8.46849L7.61435 8.16947Z" fill="#F3CD03"/>
</svg>
