<svg width="83" height="24" viewBox="0 0 83 24" fill="none" xmlns="http://www.w3.org/2000/svg">
<path d="M0.5 13.9004C0.632608 13.9004 0.759785 13.9531 0.853553 14.0468C0.947322 14.1406 1 14.2678 1 14.4004V16.9004C1 17.1656 1.10536 17.42 1.29289 17.6075C1.48043 17.795 1.73478 17.9004 2 17.9004H14C14.2652 17.9004 14.5196 17.795 14.7071 17.6075C14.8946 17.42 15 17.1656 15 16.9004V14.4004C15 14.2678 15.0527 14.1406 15.1464 14.0468C15.2402 13.9531 15.3674 13.9004 15.5 13.9004C15.6326 13.9004 15.7598 13.9531 15.8536 14.0468C15.9473 14.1406 16 14.2678 16 14.4004V16.9004C16 17.4308 15.7893 17.9395 15.4142 18.3146C15.0391 18.6897 14.5304 18.9004 14 18.9004H2C1.46957 18.9004 0.960859 18.6897 0.585786 18.3146C0.210714 17.9395 0 17.4308 0 16.9004V14.4004C0 14.2678 0.0526784 14.1406 0.146447 14.0468C0.240215 13.9531 0.367392 13.9004 0.5 13.9004Z" fill="#737373"/>
<path d="M7.6459 15.854C7.69234 15.9006 7.74752 15.9375 7.80827 15.9627C7.86901 15.9879 7.93413 16.0009 7.9999 16.0009C8.06567 16.0009 8.13079 15.9879 8.19153 15.9627C8.25228 15.9375 8.30745 15.9006 8.3539 15.854L11.3539 12.854C11.4478 12.7601 11.5005 12.6328 11.5005 12.5C11.5005 12.3672 11.4478 12.2399 11.3539 12.146C11.26 12.0521 11.1327 11.9994 10.9999 11.9994C10.8671 11.9994 10.7398 12.0521 10.6459 12.146L8.4999 14.293V5.5C8.4999 5.36739 8.44722 5.24021 8.35345 5.14645C8.25969 5.05268 8.13251 5 7.9999 5C7.86729 5 7.74011 5.05268 7.64635 5.14645C7.55258 5.24021 7.4999 5.36739 7.4999 5.5V14.293L5.3539 12.146C5.26001 12.0521 5.13268 11.9994 4.9999 11.9994C4.86712 11.9994 4.73979 12.0521 4.6459 12.146C4.55201 12.2399 4.49927 12.3672 4.49927 12.5C4.49927 12.6328 4.55201 12.7601 4.6459 12.854L7.6459 15.854Z" fill="#737373"/>
<path d="M26.434 7.214H30.396V17H28.296V9.076H26.434V7.214ZM38.9305 7.214V9.104H35.0665V10.742C35.3558 10.658 35.6872 10.616 36.0605 10.616C37.0032 10.616 37.8152 10.9007 38.4965 11.47C39.1778 12.0393 39.5185 12.8093 39.5185 13.78C39.5185 14.7413 39.1638 15.5393 38.4545 16.174C37.7545 16.7993 36.8865 17.112 35.8505 17.112C34.5252 17.112 33.4192 16.622 32.5325 15.642L33.6805 14.046C33.7645 14.13 33.8765 14.2327 34.0165 14.354C34.1565 14.4753 34.4132 14.6387 34.7865 14.844C35.1598 15.04 35.5332 15.138 35.9065 15.138C36.2798 15.138 36.6112 15.026 36.9005 14.802C37.1898 14.578 37.3345 14.2467 37.3345 13.808C37.3345 13.3693 37.1758 13.0333 36.8585 12.8C36.5505 12.5573 36.1492 12.436 35.6545 12.436C35.1598 12.436 34.5858 12.6133 33.9325 12.968L33.0225 11.988V7.214H38.9305ZM48.6317 8.908C48.2677 8.908 47.9784 8.99667 47.7637 9.174C47.5584 9.342 47.4557 9.57067 47.4557 9.86C47.4557 10.14 47.5817 10.364 47.8337 10.532C48.0951 10.7 48.6877 10.9007 49.6117 11.134C50.5451 11.358 51.2684 11.6987 51.7817 12.156C52.2951 12.6133 52.5517 13.2807 52.5517 14.158C52.5517 15.0353 52.2204 15.7493 51.5577 16.3C50.9044 16.8413 50.0411 17.112 48.9677 17.112C47.4184 17.112 46.0231 16.538 44.7817 15.39L46.0837 13.794C47.1384 14.718 48.1137 15.18 49.0097 15.18C49.4111 15.18 49.7237 15.096 49.9477 14.928C50.1811 14.7507 50.2977 14.5173 50.2977 14.228C50.2977 13.9293 50.1764 13.696 49.9337 13.528C49.6911 13.3507 49.2104 13.1733 48.4917 12.996C47.3531 12.7253 46.5177 12.3753 45.9857 11.946C45.4631 11.5073 45.2017 10.826 45.2017 9.902C45.2017 8.96867 45.5331 8.25 46.1957 7.746C46.8677 7.242 47.7031 6.99 48.7017 6.99C49.3551 6.99 50.0084 7.102 50.6617 7.326C51.3151 7.55 51.8844 7.86733 52.3697 8.278L51.2637 9.874C50.4144 9.23 49.5371 8.908 48.6317 8.908ZM60.7975 17H58.8235V16.09C58.2821 16.7713 57.6101 17.112 56.8075 17.112C56.0141 17.112 55.3468 16.8833 54.8055 16.426C54.2641 15.9593 53.9935 15.3433 53.9935 14.578C53.9935 13.8033 54.2735 13.2247 54.8335 12.842C55.3935 12.4593 56.1588 12.268 57.1295 12.268H58.6975V12.226C58.6975 11.4233 58.2728 11.022 57.4235 11.022C57.0595 11.022 56.6721 11.0967 56.2615 11.246C55.8601 11.386 55.5195 11.5633 55.2395 11.778L54.3015 10.42C55.2908 9.70133 56.4201 9.342 57.6895 9.342C58.6041 9.342 59.3508 9.57067 59.9295 10.028C60.5081 10.4853 60.7975 11.2087 60.7975 12.198V17ZM58.6835 14.13V13.766H57.3675C56.5275 13.766 56.1075 14.0273 56.1075 14.55C56.1075 14.8207 56.2055 15.0307 56.4015 15.18C56.6068 15.32 56.8961 15.39 57.2695 15.39C57.6428 15.39 57.9695 15.278 58.2495 15.054C58.5388 14.8207 58.6835 14.5127 58.6835 14.13ZM65.012 17H62.912V6.612H65.012V17ZM73.7239 15.908C72.8745 16.7107 71.8759 17.112 70.7279 17.112C69.5892 17.112 68.6465 16.762 67.8999 16.062C67.1532 15.3527 66.7799 14.4053 66.7799 13.22C66.7799 12.0347 67.1579 11.092 67.9139 10.392C68.6792 9.692 69.5799 9.342 70.6159 9.342C71.6519 9.342 72.5292 9.65467 73.2479 10.28C73.9759 10.9053 74.3399 11.764 74.3399 12.856V13.976H68.8519C68.9172 14.3867 69.1319 14.7227 69.4959 14.984C69.8599 15.2453 70.2705 15.376 70.7279 15.376C71.4652 15.376 72.0719 15.1287 72.5479 14.634L73.7239 15.908ZM72.2119 12.478C72.1652 12.03 71.9972 11.6847 71.7079 11.442C71.4185 11.1993 71.0639 11.078 70.6439 11.078C70.2332 11.078 69.8552 11.204 69.5099 11.456C69.1645 11.708 68.9639 12.0487 68.9079 12.478H72.2119ZM81.7242 14.662C81.7242 15.3993 81.4488 15.992 80.8982 16.44C80.3568 16.888 79.6662 17.112 78.8262 17.112C78.2662 17.112 77.6828 17.014 77.0762 16.818C76.4695 16.6127 75.9235 16.314 75.4382 15.922L76.3622 14.606C77.1462 15.2127 77.9815 15.516 78.8682 15.516C79.1388 15.516 79.3535 15.4647 79.5122 15.362C79.6708 15.25 79.7502 15.1053 79.7502 14.928C79.7502 14.7507 79.6382 14.5873 79.4142 14.438C79.1995 14.2887 78.8822 14.1487 78.4622 14.018C78.0515 13.8873 77.7342 13.7753 77.5102 13.682C77.2955 13.5887 77.0482 13.4533 76.7682 13.276C76.1988 12.9213 75.9142 12.3987 75.9142 11.708C75.9142 11.008 76.1942 10.4387 76.7542 10C77.3142 9.56133 78.0375 9.342 78.9242 9.342C79.8108 9.342 80.6975 9.64067 81.5842 10.238L80.8002 11.638C80.1468 11.19 79.4935 10.966 78.8402 10.966C78.1962 10.966 77.8742 11.1433 77.8742 11.498C77.8742 11.694 77.9768 11.848 78.1822 11.96C78.3875 12.072 78.7282 12.2027 79.2042 12.352C79.6802 12.5013 80.0162 12.618 80.2122 12.702C80.4175 12.7767 80.6602 12.898 80.9402 13.066C81.4628 13.3833 81.7242 13.9153 81.7242 14.662Z" fill="#737373"/>
</svg>
