<svg width="1440" height="825" viewBox="0 0 1440 825" fill="none" xmlns="http://www.w3.org/2000/svg">
<path fill-rule="evenodd" clip-rule="evenodd" d="M0 607.386L60 620.784C120 634.182 240 660.979 360 701.174C480 741.368 600 794.961 720 815.058C840 835.156 960 821.758 1080 801.66C1200 781.563 1320 754.766 1380 741.368L1440 727.97V446.607H1380C1320 446.607 1200 446.607 1080 446.607C960 446.607 840 446.607 720 446.607C600 446.607 480 446.607 360 446.607C240 446.607 120 446.607 60 446.607H0V607.386ZM0 0H1440V446.607H0V0Z" fill="#184C99"/>
<path d="M0 607.386L60 620.784C120 634.182 240 660.979 360 701.174C480 741.368 600 794.961 720 815.058C840 835.156 960 821.758 1080 801.66C1200 781.563 1320 754.766 1380 741.368L1440 727.97V446.607H1380C1320 446.607 1200 446.607 1080 446.607C960 446.607 840 446.607 720 446.607C600 446.607 480 446.607 360 446.607C240 446.607 120 446.607 60 446.607H0V607.386ZM0 0H1440V446.607H0V0Z" fill="#184C99"/>
</svg>
